<?xml version="1.0" encoding="utf-8"?>
<!-- Generator: Adobe Illustrator 22.0.1, SVG Export Plug-In . SVG Version: 6.00 Build 0)  -->
<svg version="1.1" id="Layer_1" xmlns="http://www.w3.org/2000/svg" xmlns:xlink="http://www.w3.org/1999/xlink" x="0px" y="0px"
	 viewBox="0 0 612 792" style="enable-background:new 0 0 612 792;" xml:space="preserve">


<defs>

<style type="text/css">
	.st0{fill:none;stroke:#000;stroke-width:5;stroke-miterlimit:10;}
	.st1{fill:none;stroke:#000;stroke-width:5;stroke-miterlimit:10;}
	.st3{fill:none;stroke:#000;stroke-width:5;stroke-miterlimit:10;}
</style>


	<style>
	.st0 {
	stroke-dasharray: 1000;
	stroke-dashoffset:0;
	-webkit-animation: dash1 8s linear forwards;

}

@-webkit-keyframes dash1 {
	from {
		stroke-dashoffset:1000;

	}
	to {
		stroke-dashoffset:0;
	}
}

	</style>

		<style>
	.st1 {
	stroke-dasharray: 2800;
	stroke-dashoffset:0;
	-webkit-animation: dash2 5s linear forwards;

}

@-webkit-keyframes dash2 {
	from {
		stroke-dashoffset:2800;

	}
	to {
		stroke-dashoffset:0;
	}
}

	</style>


		<style>
	.st3 {
	stroke-dasharray: 100;
	stroke-dashoffset:0;
	-webkit-animation: dash3 5s linear forwards;

}

@-webkit-keyframes dash3 {
	from {
		stroke-dashoffset:100;

	}
	to {
		stroke-dashoffset:0;
	}
}

	</style>

</defs>



<path id="Face" class="st1" d="M135.7,506.5c0.4,1.2,0.8,2.3,1.3,3.4c3,6.4,7.1,12.3,11.1,18.1c6.5,9.4,13.2,18.8,21.1,27.1
	c0.3,0.3,0.6,0.6,0.9,1c15.5,15.9,35.7,27.1,57.2,32.2c11,2.6,21.8,3.1,33,3.1c13.3,0.1,26.6,2.4,39.9,2.4c2.9,0.2,5.9,0.4,8.8,0.8
	c3,0.5,5.9,1.3,8.9,1.6c4.2,0.5,8.4,0,12.5-0.6c6.4-1,12.8-2.5,19-4.5c2.6-0.8,4.8-2.1,7.3-3c2.8-1.1,5.4-1.9,8.1-3.3
	c6.5-3.4,13-6.9,19-11.1c5.6-3.9,10.8-8.4,16.5-12.2c3.4-2.3,7-4.4,10.3-6.9c2.2-1.7,4.1-3.7,6.1-5.7c6.1-6.1,11.9-12.3,17.2-19.2
	c0.8-1.1,1.9-2,2.7-3.1c1.1-1.7,1.8-3.8,2.7-5.6c4.1-8.4,8.5-16.5,11.8-25.2c3.7-9.6,5.7-19.8,8.4-29.7c0.8-3,2.3-6.5,5.4-6.9
	c1.2-0.1,2.4,0.3,3.6,0.6c5.3,1.4,11.5,0.5,15.2-3.6c5.6-6.2,3.6-17.1,10-22.4c1.4-1.1,3-1.9,4.5-2.7c4-2.1,7.6-4.9,10.6-8.2
	c1.4-1.5,2.7-3.2,2.7-5.2c0-1.3-0.5-2.5-0.9-3.7c-1.1-3.4-1.1-7.1,0-10.5c0.9-2.9,0.8-4.8,0.5-7.8c-0.7-7.4-3-14.5-4.9-21.7
	c-2.5-9.3-4.5-19.3-1.6-28.5c1.4-4.4,3.8-8.4,5-12.9s0.8-9.8-2.6-12.9c-2.6-2.3-6.4-2.8-9.7-2.2s-6.5,2.3-9.5,4.1
	c-6.8,3.9-13.9,8.6-16.4,16c-0.6,1.7-1.7,4-3.4,3.5c-0.7-0.2-1.2-0.9-1.6-1.6c-6.2-10.4-4.9-23.4-3.5-35.4
	c0.7-6.3,1.5-12.7,4.1-18.4c1.3-2.9,3-5.5,4.1-8.4c1.5-3.8,2.4-8,1.4-12c-2-7.9-4-15.8-5.3-23.9c-1.2-7.8-1.7-15.7-3.4-23.5
	c-0.5-2.1-0.1-3.9-1.9-5.1c-3.8-2.4-5-7.4-5.6-11.8c-0.6-4.5-1.1-9.3-4.2-12.6c-1.5-1.6-3.6-2.7-5.2-4.2c-1.9-1.8-3.1-4.1-4.7-6.1
	c-7.9-10.3-22.3-12.8-32.4-20.8c-1-0.8-2-1.6-3.2-2.1c-3-1.1-6.3,0.5-9.5,0.5c-3.1,0-5.9-1.4-8.9-2.4c-10-3.2-21.3-0.4-31.2-3.8
	c-7-2.4-12.9-7.9-15.7-14.8c-1.9-4.6-2.5-9.6-2.9-14.5c-0.1-0.8-0.2-1.7-0.9-2.1c-2.1-1.2-5.3,7.5-5.7,9c-0.6,2.1-0.9,4.4-0.7,6.6
	c0,0.5,0.7,5.9,1.3,5.8c-4.7,0.6-8.5-4.5-8.5-9.3c0-4.7,2.5-9.1,4.7-13.3c0.6-1.1,1.1-2.3,1-3.5c-0.4-3-4.3-3.7-7.3-3.5
	c-6,0.5-11.9,2.3-17.1,5.2c-4.2,2.3-8.4,5.5-13.2,5.6c-5.5,0.2-10.3-3.6-15.7-4.6c-11-2.2-20.7,6.7-31,11.4
	c-8.2,3.8-17.6,4.8-26.4,3c-1.9-0.4-3.8-0.9-5.3-2.1c-3.1-2.5-3.4-6.9-3.6-10.9c-3.8,0.8-5,5.5-5.8,9.4c-1.6,8.1-4.7,15.9-9,23
	c-4.2-6.1-1.5-14.2-0.6-21.5c1.2-8.9-0.5-18.1-4.6-26.1c-0.4-0.8-0.9-1.7-1.7-2.2c-1.9-1.2-4.5,0.1-5.6,2s-1.1,4.3-1.2,6.5
	c-0.7,15.6-9.2,30.7-22.1,39.5c-5.2,3.5-11.8,7.3-11.9,13.6c5.7-3.6,11.6-6.9,17.7-9.9c1.1,8.1-10.6,13.9-9.2,21.9
	c3.3-2.8,6.6-5.7,9.8-8.5c0.3-0.3,0.6-0.5,1-0.6c1.8-0.3,1.6,2.7,0.6,4.2c-10.5,15-20.3,30.6-29.2,46.7c-3.6,6.5-8.5,14.9-7.4,22.7
	c1,7.6,0,15.3-3,22.4c-1.7,3.9-3.9,7.5-5.7,11.4c-6.7,13.7-8.8,29-13.8,43.4c-0.3,1-0.7,2-1.6,2.6c-2.2,1.6-5.2-1.2-5.8-3.8
	c-1.9-7.8,4.4-15.9,2.2-23.7c-1.2-4.4-4.9-7.6-8.7-10.1c-3.8-2.5-8-4.5-11.2-7.7c-2.4-2.4-4.3-5.4-7.4-6.7
	c-3.7-1.5-8.1,0.1-10.9,2.9s-4.3,6.7-5.6,10.5c-3.1,9.6-4.7,19.7-6.3,29.7c-0.9,5.4-1.7,10.9-1.5,16.3c0.3,5.7,1.7,11.3,2.4,17
	c1.4,11.7-0.3,23.5,1.3,35.2c1.3,9.4,9.3,16.7,16.8,22.1c5.8,4.2,12.3,7.8,16.3,13.8c1.1,1.7,2.1,3.5,3.3,5.1
	c2.9,3.7,7.6,5.7,12.2,6.3c2,0.3,4.1,0.3,6.1,0.1c2.2-0.2,4.4-0.7,6.2-1.9c1.9-1.2,2.8-3.1,3-5.2c-0.2,10.6,0.9,21.2,2.1,31.7
	c0.5,4.9,1.1,9.8,2,14.7c1.6,8.8,4.3,17.3,7,25.8c1.1,3.6,2.3,7.2,3.7,10.7c3.1,7.5,1.9,16.5,2,24.5c0.1,9,0.3,17.9,0.4,26.9
	c0.1,8.1,0.2,16.1,0.4,24.2c0.1,9.7,0.3,19.3,0.4,29c0.2,10.4,0.9,20,1.1,30.4c0.1,2.8,0.1,5.7-0.7,8.4c-1.6,5.5-6.4,9.4-8.9,14.4
	c-3.8,7.5-2.4,16.8,1.1,24.5c1.2,2.7,3.1,5.1,4.3,7.8c5.3,12,14.2,22.1,23.6,31.1c17.3,16.5,37,30.2,56.6,43.8
	c3.6,2.5,7.2,4.9,11,6.9c9.7,5,20.8,6.8,31.7,6.8c10.9,0,21.8-1.7,32.6-3.4c32.2-5.1,62.9-16.1,93.8-26.4c14.7-4.9,29.3-10,43.1-17
	c9.4-4.7,18.6-10.4,25.8-18c5.9-6.2,10.5-13.5,14.8-20.8c2.6-4.3,5.1-8.5,7.2-13c1.1-2.3,2-4.6,2.8-7.1c0.6-1.7,1.9-3.7,0.8-5.4
	c-1.8-2.9-5.7-3.6-8.9-4.9c-2.9-1.2-5.5-3-8-4.9c-5.1-3.7-10.2-7.4-15.4-11.1c-4.3-3.1-8.7-6.3-11.3-10.9c-4.4-7.6-2.9-17-2.9-25.8
	c0-5.3-0.7-10.6-0.9-15.9c-0.3-8.9,0.7-17.7,1.9-26.4c0.6-3.9,1.8-7.5,2.3-11.5c0.6-4.3,0.8-8.7,0.7-13.1c-0.1-2.5-0.3-5,0.1-7.5"/>
	<path class="st0" d="M604.3,718.5c-8.7-2.3-15.9-8.3-23.6-13.2c-9.5-6.1-19.9-10.6-30.9-13.3c-14.2-3.5-29.7-4.1-41.8-12.3
	c-5.4-3.6-9.8-8.6-14.8-12.8c-12.7-10.6-29-15.7-44.8-20.7"/>
<path class="st0" d="M510.9,692.9c-10.3,19.8-26.5,35.7-42.8,50.9c-2.6,2.4-5.2,4.9-8,7.1c-6.4,5.1-13.5,9.1-20.6,13.1
	c-11.1,6.2-22.1,12.4-33.2,18.5"/>
<path class="st0" d="M502.1,689.1c-14.2,13.7-24.5,31.2-39.2,44.5c-13.3,12-29.6,20-46.2,26.7s-33.6,12.2-49.7,19.9"/>
<path class="st0" d="M35.5,694.1c8.7-1,16.1-6.4,23.2-11.4c8.9-6.2,18-12.1,27.4-17.6c4.6-2.7,9.3-5.3,14-7.9
	c2.4-1.3,4.8-2.6,7.3-3.8c1-0.5,2.3-0.9,3.1-1.7c0.7-0.6,1-1.5,1.8-2c1.7-1.2,4.8-1.6,6.9-2.4c5-1.8,9.9-3.8,14.1-7"/>
<path class="st0" d="M129.3,736.6c-6.1-6.6-12.1-13.3-18.2-19.9c-3.8-4.1-7.6-8.3-9.8-13.4c-2.6-5.9-2.9-12.5-2.4-18.9
	c0.2-2.9,0.5-5.9,1.2-8.7c1.1-4.9,3.2-9.5,5.2-14"/>
<path class="st0" d="M120.3,656.1c-4,7.6-4.3,16.9-2.3,25.3c2,8.4,6.2,16.1,10.9,23.4"/>
<path class="st1" d="M241.1,599.1c4.6,7.7,11.7,14,19.9,17.7c4.9,2.2,10.2,3.4,15.4,4.7c7.1,1.7,14.2,3.4,21.3,5.1
	c4.6,1.1,9.9,2.8,11.5,7.3c1,2.9,0.1,6.1-0.9,9c-1.5,4.2-3.2,8.6-6.5,11.6c-3.3,3.1-8.5,4.5-12.4,2.3c-1.7-1-3.1-2.6-4.8-3.7
	c-1.7-1.1-4.2-1.3-5.5,0.2c-0.9,1.1-0.9,2.7-0.6,4.1c1.5,7.4,8.6,13.3,8.6,20.9c0,6-4.4,11.8-2.6,17.5c0.2,0.7,0.6,1.5,1.3,1.9
	c2,1.2,4.1-1.3,5.7-2.9c4.1-4,10.8-3.1,16.2-1.1c5.3,2.1,10.6,5.1,16.3,4.7c8.2-0.6,14.6-8.2,22.8-8.4c3.1-0.1,6.1,0.9,9,1.9
	c13.3,4.6,27,10.4,35.6,21.6c0.9,1.2,1.9,2.7,1.6,4.2c-0.4,2.4-3.1,3.4-5.5,3.8c-11.3,1.7-22.8-2.5-34.2-2.2
	c-10.6,0.3-20.7,4.4-30.2,8.8c-13.4,6.3-27.7,14.9-31.4,29.3c-0.3,1.3-0.6,2.7-1.4,3.8c-1.5,2.2-4.5,2.7-7.2,3
	c-16.5,1.9-33.5,3.8-49.7-0.4c-2.1-0.6-4.7-1.7-4.8-3.9c-0.1-1.3,0.8-2.5,1.7-3.4c3.9-3.7,9.6-4.8,15-4.9c5.4-0.1,10.8,0.7,16.2-0.1
	c2.5-0.4,5.7-2.6,4.3-4.7c-0.4-0.7-1.2-1-1.9-1.4c-2.5-1.3-4.9-2.9-6.9-4.8c-1.4-1.3-2.8-2.8-3.2-4.7c-0.8-3.9,2.9-7.5,6.8-8.5
	c3.9-1,8-0.2,12-0.2c4,0,8.5-1.3,10.4-4.8"/>
<path class="st0" d="M471.2,367.3c-0.6,6.7,0.3,13.5,2.6,19.8c1.6,4.5,4,9.2,2.4,13.7c-1,2.9-3.5,5-5.1,7.6
	c-1.6,2.5-2.3,5.5-2.1,8.5c0.1,1.8,0.8,3.8,2.4,4.5c2.2,1,4.7-0.9,6.3-2.8c1.4-1.7,2.7-3.5,3.7-5.5c0.4-0.7,0.8-1.4,1.4-1.9
	c1.3-1,3.1-0.6,4.7-0.3c2.9,0.6,6.2,0.7,8.5-1.2c2.7-2.3,2.6-6.5,1.8-9.9c-2.1-10.1-7.5-19.5-15.3-26.3c-2.6-2.3-5.7-5-5-8.4
	c0.7-3.5,5.4-4.8,8.6-3.4c3.3,1.4,5.3,4.6,7.3,7.5"/>
<path class="st0" d="M455,316.7c-3.4,13.3-3.7,27.4-1,40.9c1.3,6.3,3.2,12.4,4.6,18.7c5,22.4,2.8,45.9-3,68
	c-5.8,22.2-15.1,43.2-24.5,64.1c-1.4,3.2-4.2,7-7.5,5.9c-1.7-0.6-2.7-2.3-3.2-4c-1.3-4.4-0.3-9.3,1.6-13.5s4.8-7.9,7.4-11.7
	c4.3-6.4,7.9-13.3,10.8-20.5c8.2-21.2,9.4-44.8,4.7-67.1c-4-19-12.2-38.4-7.6-57.3"/>
<path class="st3" d="M417.5,348c5.5-0.3,11,3.8,12.3,9.2"/>
<path class="st3" d="M415.3,367.5c1.1,2.8,3.1,5.2,5.5,7.1c2.4,1.9,5.2,3.2,8.1,4.2"/>
<path class="st3" d="M414,381.2c1.6,4.9,6.7,7.5,10.3,11.2c5.8,6,8,15.1,14.8,20"/>
<path class="st3" d="M399.8,391.7c4.8,1.3,9.2,3.7,13,6.8c9.2,7.6,14.4,19.8,24.9,25.5"/>
<path class="st0" d="M410.2,413.3c1.6-0.1,3.1,1,4.3,2.1c2,1.9,3.8,4.1,5.1,6.5c1.6,2.9,2.7,6.1,4,9.2c2.9,7.4,6.6,14.4,11,21"/>
<path class="st3" d="M432.1,434.5c2.8,2.5,4.9,6,8.4,7.4"/>
<path class="st0" d="M407.8,430.9c5.2,4.1,10.1,9.1,12.2,15.4c0.9,2.8,1.2,5.8,1.7,8.7c1.3,6.8,3.9,13.4,7.7,19.3"/>
<path class="st0" d="M398.1,442.4c5.5,4,9.8,9.6,11.8,16.1c0.7,2.5,1.1,5,1.6,7.5c1.4,6.8,3.8,13.3,7.1,19.4"/>
<path class="st0" d="M365.2,452.6c5.2-2.6,11.5-1.1,16.7,1.4c6.8,3.2,12.9,8.1,17,14.4c2.8,4.3,4.6,9.1,6.8,13.8
	c2.1,4.7,4.7,9.3,8.7,12.5"/>
<path class="st3" d="M365.6,465.8c2.1-0.1,4.2,0.7,6,1.9c9.4,5.8,12.9,17.6,20.6,25.5c4.4,4.5,10,7.6,15.9,9.8"/>
<path class="st3" d="M326.8,584.4c-9.1,1.6-18.4,2-27.6,1.2c-5.8-0.5-12-1.7-16.3-5.6c-2.8-2.5-4.6-6-6.9-9c-2.4-3.2-5.4-6-8.7-8.2
	c-1.7-1.1-3.6-2.1-5.6-2.3c-3.4-0.2-6.4,1.8-9.1,3.8c-4,3-8,6.1-12.4,8.4c-4.5,2.3-9.5,3.7-14.5,2.9c-5.1-0.8-9.6-3.8-13-7.6
	c-1.5-1.7-2.9-3.5-4.7-4.8c-1.9-1.3-4.4-1.9-6.4-0.8c-2,1.1-2.6,4.3-0.8,5.6"/>
<path class="st3" d="M253.2,581.7c0.3-3.3,3.2-6.1,6.5-6.2c2.8-0.2,5.4,1.4,7.8,2.9"/>
<path class="st3" d="M323.1,542.5c1.9-0.8,4.1-0.3,5.8,0.9c1.7,1.2,2.8,2.9,3.8,4.7c4.3,7.5,6.2,16.2,5.6,24.8"/>
<path class="st3" d="M345,551c1.8-1.1,4.2-0.2,5.5,1.5c1.2,1.7,1.5,3.9,1.3,6c-0.2,3.7-1.3,7.3-1.1,11c0.2,3.7,2.2,7.7,5.9,8.5"/>
<path class="st3" d="M357.2,549.8c1.1-0.4,2.3-0.4,3.4,0.1c1.7,0.9,2.4,3,2.6,4.9c0.2,2.7-0.4,5.5,0,8.2c0.3,2.7,1.9,5.6,4.5,6.1"/>
<path class="st3" d="M364.3,545.3c2.2-0.7,4.9-1.1,6.7,0.4c2,1.7,1.7,4.9,2.6,7.4c1.3,3.8,5.2,6,8.9,7.5"/>
<path class="st3" d="M334.9,540.5c5.9,2.9,13,3.1,19,0.6c3.2-1.3,6-3.4,9.3-4.4s7.3-0.6,9.4,2.1"/>
<path class="st3" d="M329.1,533.4c1-0.6,2.3-0.3,3.5-0.1c4.7,1.2,9.4,3.1,14.3,2.8c3.1-0.2,6.1-1.4,8.6-3.3c2-1.6,3.6-3.6,5.5-5.4
	c1.8-1.8,4.1-3.4,6.6-3.7"/>
<path class="st0" d="M243,529.5c2.4-2.1,5.6-2.9,8.6-3.6c7.1-1.6,14.3-2.9,21.5-2.7c7.2,0.2,14.6,2.2,20.4,6.5"/>
<path class="st0" d="M253.8,518.8c0-1,1-1.6,1.9-2c8.2-3.6,17.6-4.3,26.2-1.8"/>
<path class="st0" d="M251,506.7c4.5-3,10.5-2.4,15.9-1.7c5.4,0.8,10.9,1.6,16,3.7"/>
<path class="st0" d="M228.3,506.2c-3-6.6-10.2-10.2-16.9-13.1c-1.7-0.7-3.8-1.9-3.6-3.8c0.1-1.4,1.6-2.4,2.9-2.9
	c7.8-3.3,16.8-1.4,25.1-2.9c6.2-1.1,11.9-4,17.4-7.1c3.5-1.9,7.6-4,11.3-2.6c4.1,1.6,5.9,7,10.2,8.2c3.7,1.1,7.4-1.4,10.7-3.4
	c4.1-2.4,8.6-4.2,13.3-5.1c2-0.4,4.2-0.7,6.2-0.5c2.6,0.3,5,1.3,7.4,2.3c5,2.1,10.3,4.2,15.7,4.2c5.6,0.1,11.4-2,16.7,0
	c3.8,1.4,6.6,4.7,9.2,7.9c-1,2.1-4.1,1.5-6.4,1.1c-6.7-1.4-14.1,1.5-18.2,7"/>
<path class="st0" d="M196.2,496.6c2.1-5.3,3.9-10.8,5.5-16.3c1.1-3.7,2.1-7.7,4.7-10.6c1.1-1.2,2.7-2.3,4.2-1.7
	c1.2,0.5,1.8,1.8,1.9,3.1c0.2,1.3,0.1,2.6,0.5,3.8c0.6,1.7,2.2,3,4,3.3"/>
<path class="st0" d="M333,471.7c-0.6,0.8-1.7,1.1-2.7,1c-1-0.1-1.9-0.6-2.8-1.1c-6-3.4-11.8-7.5-15.6-13.3c-0.6-0.8-1.1-1.7-1.8-2.5
	c-1.6-1.7-4-2.5-6.3-2.6c-2.3,0-4.6,0.8-6.6,1.9c-2.4,1.3-4.5,3.2-7.2,3.6"/>
<path class="st0" d="M280.4,415.5c-1,2.6-0.9,5.7,0.4,8.2c0.7,1.3,1.6,2.6,1.5,4.1c-0.1,1.2-1,2.2-1.9,3.1
	c-3.2,3.5-6.1,7.2-8.7,11.1c-0.9,1.3-1.7,2.7-2,4.3c-0.2,1.3,0.1,2.7,0.6,4c0.4,1,0.9,1.9,1.7,2.5c1.4,1,3.4,0.8,5.1,0.2
	c2.3-0.7,4.4-1.8,6.3-3.2c2.1-1.5,4.5-3.4,6.8-2.4"/>
<path class="st0" d="M251.1,385.7c-3.1,5.6-6.2,11.3-9.3,16.9c-1.1,1.9-2.1,3.9-2.7,6c-1.2,4.2-0.5,8.8,1.6,12.6s5.6,6.7,9.5,8.6"/>
<path class="st0" d="M212.7,440c5.9-0.5,11.3-3.7,15.8-7.6c2.1-1.8,4.1-3.9,4.8-6.5"/>
<path class="st0" d="M273.7,398.5c1,0.2,1.9,0.9,2.6,1.6c1.1,1.2,1.8,2.7,2,4.2c0.6,4.3-2.7,8.4-6.7,10.1c-4,1.6-8.6,1.4-12.8,0.7
	c-1.3-0.2-2.6-0.4-3.7-1.1c-5.4-3.1,1.4-9,4.7-10.7c1.8-1,3.9-1.5,5.8-2.3C268,400.1,270.8,397.8,273.7,398.5z"/>
<path class="st0" d="M306.3,408.3c-0.6-0.4-0.3-1.3,0.1-1.9c0.7-1.2,1.5-2.4,2.2-3.7c0.9-1.5,1.9-3.1,3.3-4.1c2-1.4,4.7-1.5,7.1-1.1
	c1.5,0.3,3.1,0.7,4.3,1.6c1.2,0.9,2.1,2.4,2.1,4c0,1.3-0.7,2.5-1.5,3.6c-1.9,2.9-4.3,5.6-6.9,7.9"/>
<path class="st0" d="M328.6,268.3c-5.3,3.8-9.9,8.8-12.2,14.9c-2.3,6.1-2,13.4,1.7,18.7c2.5,3.6,6.6,6.6,6.8,10.9
	c0.1,2.1-0.8,4.2-1.6,6.1c-1.9,4.2-3.8,8.5-5.9,12.5c-1.8,3.4-3.9,6.8-4.5,10.5c-0.5,3.1,0.1,6.2,0.8,9.2c1.8,7.7,4.9,15,9,21.8
	c3.3,5.4,7.3,10.4,9.8,16.1c2.6,5.8,3.5,12.6,0.7,18.2c-2.2,4.4-6.4,7.3-10.4,10.2c-4,2.9-8.1,6.1-9.9,10.6
	c-1.8,4.6-0.3,10.8,4.3,12.5c1.5,0.6,3.2,0.6,4.8,0.5c4.2-0.3,8.3-1.5,12.5-1.4c4.2,0.1,8.8,1.7,10.8,5.4"/>
<path class="st0" d="M83.7,288.6c-2.8-0.5-5.6,1.3-7.1,3.7c-1.6,2.4-2.1,5.2-2.7,8c-1.2,5.9-2.4,11.8-3.5,17.6
	c-0.8,3.9-1.5,7.7-1.9,11.6c-0.3,3.7-0.3,7.5-0.8,11.1c-0.8,5.9-3,12.5,0.1,17.6c1.2,1.9,3.5,3.4,5.6,2.7c1.4-0.5,2.2-1.8,3.4-2.7
	c3.3-2.5,8.1-1,12.1-2c1-0.2,1.9-0.6,2.9-0.7c3.5-0.3,6.2,3.1,7.7,6.3c1.3,2.8,2.1,5.9,2.6,8.9c0.4,2.4,0.7,5.2,2.8,6.4
	c1.8,1,4.2,0.3,5.6-1.2c1.4-1.5,2.1-3.5,2.6-5.5c1.9-7.5,1.9-15.3,1.9-23.1c0-6,0-12.2-1.8-17.9c-0.4-1.2-1-2.5-2.2-2.9
	c-1.8-0.5-3.2,1.4-3.8,3.1c-1.8,4.9-1.4,10.3-3.2,15.1c-0.4,1-1,2.1-2,2.3c-1.9,0.4-2.9-2.2-3.3-4.1c-0.5-2.9-1.6-6.1-4.2-7.4
	c-1.8-0.9-4-0.7-5.6,0.4c-1.6,1.1-2.5,3.2-2.2,5.1"/>
<path class="st0" d="M203.9,355.8c15.4-9.4,30.5-19.1,45.4-29.2c4.4-3,8.9-6,12.6-9.9c2.8-2.9,5.3-6.4,6-10.4c1-5.9-1.8-11.8-5-16.9
	"/>
<path class="st0" d="M220.9,317.1c3.2-2.1,6.5-4.1,9.7-6.2c1.7-1.1,3.5-2.2,5.5-2.7c1.9-0.4,3.9-0.2,5.9-0.1c2,0.1,4.1-0.1,5.7-1.2
	s2.7-3.4,1.7-5.1c-0.9-1.7-3-2.2-4.4-3.5c-0.7-0.6-1.2-1.4-1.8-2.2c-4.7-6.3-13.3-8.9-21.1-7.9c-2.3,0.3-4.5,0.8-6.8,0.8
	c-1.9,0-3.8-0.4-5.7-0.4c-4.6-0.1-9,1.7-12.9,4c-3.9,2.3-7.5,5.2-11.4,7.6c-2.2,1.3-4.5,2.5-6.4,4.2c-2,1.7-3.6,3.9-3.9,6.4
	c-0.1,0.7,0,1.5,0.4,2.1c0.5,0.7,1.5,1,2.4,1.1c3.2,0.5,6.4,0.2,9.7,0.1c6.5-0.2,13.1,0.4,19.4,1.8c5.2,1.1,10.8,2.8,15.5,0.3"/>
<path class="st0" d="M200.1,292.8c-1.9,3.2-2.5,7.1-2.4,10.9c0,1.4,0.2,2.8,0.6,4.2c0.3,1,0.7,1.9,1.1,2.8c0.5,1,0.9,1.9,1.4,2.9"/>
<path class="st0" d="M228.7,289.1c0.1,2.9,1.8,5.5,2.4,8.3c0.5,2.3,0.2,4.6-0.3,6.9c-0.6,2.2-1.5,4.4-2.5,6.5"/>
<path class="st0" d="M171.6,296.9c11.9-6.6,24.1-13.1,37.5-16c4.5-1,9.1-1.6,13.7-2.2c2.4-0.3,4.9-0.6,7.3-0.4
	c6.8,0.7,12.4,5.4,17,10.5"/>
<path class="st0" d="M192.9,329.4c0.5-0.2,1.1-0.2,1.6-0.2c5.2,0.3,10.6,0.6,15.6-0.9c2.3-0.7,4.4-1.8,6.6-2.6
	c2.1-0.8,4.3-1.4,6.5-2.3c2.6-1,5.1-2.4,7.4-3.9c2.2-1.5,4.3-3.1,6.8-3.7"/>
<path class="st0" d="M178.7,252.7c-5,3.7-10,7.3-14.9,11.1c-2.2,1.7-4.6,4.1-3.8,6.7c0.8,2.5,4.1,3.2,6.8,2.7
	c4.6-0.9,8.5-3.8,12.7-5.8c7.5-3.5,16.1-4,24.4-3.3c8.3,0.7,16.4,2.4,24.7,3.1c2.9,0.2,5.9,0.3,8.7,1.1c7.7,2.1,13.9,9,21.8,9.2
	c4.3,0.1,8.5-2,11.8-4.9c4.9-4.3,8.2-11.1,6.4-17.3c-0.7-2.4-2.4-4.8-4.8-5.5c-1.6-0.5-3.4-0.2-5,0c-8.2,1.1-16.7,1.3-24.4-1.7
	c-2.8-1.1-5.6-2.7-8.6-3.1c-0.8-0.1-1.5-0.2-2.3-0.4c-0.9-0.3-1.7-0.8-2.6-1.2c-6.1-3.1-13.5-1-19.5,2.3c-6,3.3-11.4,7.8-17.9,9.8"
	/>
<path class="st0" d="M424.9,303.2c-10.5-8.4-23.4-13.7-36.8-15c-3.8-0.4-7.7-0.4-11.5,0c-10,1.1-19.4,5.4-28.4,9.9
	c-1.4,0.7-2.9,1.5-3.8,2.7s-1.1,3.2,0,4.3c0.5,0.5,1.2,0.8,1.8,1c4.2,1.6,8.7,2.7,12.8,4.6c2.5,1.2,4.9,2.7,7.6,3.6
	c3.2,1,6.6,1.1,9.9,1.4c5.5,0.4,11,1.3,16.5,1.6c5.5,0.3,11.1-0.1,16.3-2c2.6-1,5.1-2.4,7.8-2.7c2-0.2,4.1,0.1,5.8-1
	c1.3-0.9,1.9-2.5,2-4.1c0.1-1.6-0.4-3.1-0.8-4.7"/>
<path class="st0" d="M377.6,289.1c-0.7,0.5-1.1,1.4-1.4,2.2c-0.8,1.8-1.5,3.7-2.5,5.4c-0.4,0.8-0.9,1.6-1.2,2.4
	c-0.4,1.2-0.5,2.5-0.5,3.8c0,0.9-0.1,1.9,0.1,2.8c0.3,1.5,1.2,2.8,2.2,4c1.1,1.5,2.3,2.9,3.6,4.3"/>
<path class="st3" d="M401.2,292.7c1.4,1.2,2.1,3,2.5,4.8c0.7,3.6,0.1,7.5-1.7,10.7c-1.8,3.2-4.7,5.8-8.2,7.1"/>
<path class="st3" d="M352.9,285.4c10-4,20.4-7.3,31.2-8.2c10.7-0.9,22,0.9,31.1,6.6c3.8,2.4,7.2,5.4,10.5,8.5"/>
<path class="st3" d="M379.7,272.1c1.7-0.5,3.4-0.7,5.1-1c2.7-0.4,5.4-1.2,8-2.2c3.8-1.5,7.5-3.8,9.6-7.4"/>
<path class="st3" d="M366.4,274.1c3.6-4.6,8.6-8.2,14.2-10.2c2.5-0.9,5.2-1.4,7.8-1.9"/>
<path class="st3" d="M351.1,279.5c4.8-3.8,9.5-7.6,14.3-11.5"/>
<path class="st3" d="M349.3,268.5c-2.2,1.5-3.9,3.7-4.9,6.2c-1,2.5-1.4,5.1-1.3,7.8c0,1,0.1,2,0.4,3c0.3,0.9,0.7,1.8,1,2.7
	c0.5,1.4,0.8,2.9,1,4.4"/>
<path class="st0" d="M336.8,270.7c-2.7,3.5-3.8,7.9-4.6,12.2c-0.3,1.4-0.5,2.8-0.5,4.2c0.1,3,1.4,5.9,2.7,8.7c0.5,1.1,1,2.2,1.8,3"
	/>
<path class="st0" d="M323.6,282c0.5,5.1,1.6,10.2,3.3,15.1c1.6,4.7,4,9.5,8.3,12.1c1,0.7,2.2,1.2,3.3,1.7c2.2,1.1,4.4,2.4,6.5,3.8
	c2.3,1.4,4.6,2.8,6.3,4.8c1.1,1.3,2,2.7,2.5,4.3"/>
<path class="st0" d="M330.4,320.6c0.9-0.6,2.2-0.6,3.2-0.3c1,0.4,1.9,1.1,2.8,1.8c4.5,3.8,8.1,8.5,12.1,12.8c1,1.1,2.1,2.2,3.3,3
	c1.9,1.2,4,1.7,6.2,2.2"/>
<path class="st0" d="M328.1,331c1.1,2.1,2.1,4.3,3.5,6.2c2.3,3.2,5.5,5.6,9,7.5c3.5,1.9,7.2,3.1,11,4.3c3.3,1,6.7,1.8,10.1,1.6"/>
<path class="st0" d="M325.4,341.8c2,2,4,3.9,6.1,5.8c7.3,6.3,16.5,10.7,26.1,11.3c2.5,0.1,5.2,0.1,7.3,1.6"/>
<path class="st0" d="M322.5,352.5c1.4,4.7,5.1,8.6,9.4,10.9c4.3,2.4,9.2,3.4,14.2,3.8c4.9,0.4,9.8,0.1,14.8,0.1
	c2.4,0,5.1,0.1,6.8,1.8"/>
<path class="st0" d="M341.2,380.4c4.2-1.6,8.4-3.3,12.7-4.4c4.4-1.1,9-1.5,13.3-0.4c1.3,0.3,2.5,0.8,3.8,1c1.7,0.3,3.5,0,5.2-0.6"/>
<path class="st0" d="M342.6,391.8c4.4-3.5,10.1-5.1,15.6-6c2.4-0.4,4.9-0.7,7.3-0.6c3.6,0.2,7.1,1.3,10.4,2.9
	c1.5,0.7,2.9,1.6,4.3,2.6"/>
<path class="st0" d="M346.8,401.1c1.4-0.8,3-1.1,4.6-1.3c3.9-0.5,7.9-0.7,11.8-0.4c2.2,0.1,4.5,0.4,6.5,1.2c1.3,0.5,2.6,1.3,3.6,2.2
	"/>
<path class="st0" d="M344.1,407.1c5.1,1.6,10.2,3.1,15.5,3.9c3.9,0.5,8.1,0.6,11.3-1.7"/>
<path class="st0" d="M331.7,418.3c0.4-0.4,0.9-0.7,1.4-0.9c1.2-0.7,2.5-1.3,3.9-1.5c1.1-0.1,2.2,0.1,3.3,0.3
	c3.1,0.7,6.2,1.7,9.1,3.2"/>
<path class="st0" d="M323.5,429.6c2.9-1.4,5.9-2.8,9.1-3.4c3.2-0.7,6.5-0.7,9.6,0.5c1.9,0.7,3.7,1.9,5.7,2.3"/>
<path class="st0" d="M411.6,325c4.3-0.6,8.6-1.5,12.6-3c4.1-1.5,8-3.6,11.2-6.5c0.9-0.8,1.7-1.7,2.1-2.7"/>
<path class="st0" d="M427.3,334.3c2.8-2.6,6.8-3.8,10.5-3.2"/>
<path class="st0" d="M440,301.7c-1.5-3.1-1.9-6.7-2.9-10c-1.7-5.6-5.2-10.6-9.6-14.5"/>
<path class="st0" d="M415,278c1.6-3.1,4.5-5.4,7.7-6.7c3.2-1.3,6.8-1.6,10.2-1.2c1.5,0.2,3,0.5,4.5,0.4c3-0.1,5.9-1.9,7.3-4.5"/>
<path class="st0" d="M440.4,279.2c1.3-1.7,3.2-2.8,5.3-3.2c2.1-0.3,4.3,0.1,6,1.3"/>
<path class="st0" d="M443.8,288.1c2.8-1.5,6.4-1.4,9.2,0.1"/>
<path class="st0" d="M454.5,269.5c2,1.1,3.3,3.3,4.2,5.4c2.2,5.5,2.4,11.7,0.6,17.4"/>
<path class="st0" d="M448.3,242c-3.1-3-7-5-10.8-6.9c-5.3-2.6-10.7-5.3-16.6-5.9c-9.2-1-18.1,2.8-27.1,4.9
	c-7.8,1.8-15.9,2.4-23.6,4.5c-8.6,2.4-16.6,6.7-24.5,10.9c-2.6,1.4-5.3,2.9-7,5.4s-1.9,6.2,0.3,8.2c1.3,1.1,3,1.5,4.7,1.6
	c10.7,0.9,20.5-5.4,31.1-7.2c4.5-0.8,9.2-0.7,13.7-1.7c4.9-1.1,9.5-3.5,14.4-4.7c9.7-2.4,19.8,0.1,29.5,2.5c6,1.5,12,3,17.6,5.4
	c2.4,1,7.7,3.6,7.5-1.2c-0.1-1.9-1.3-3.6-2.1-5.2c-0.9-1.8-1.9-3.7-3-5.4C451.2,245.3,449.9,243.5,448.3,242z"/>
<path class="st0" d="M392.2,203.1c-1.3,1.9-1.5,4.4-0.7,6.6c0.7,2.2,2.3,4,4.1,5.4c1.8,1.4,4,2.3,6.1,3.1c1.1,0.4,2.3,0.8,3.2,1.6
	c1,0.9,1.7,2.2,1.8,3.5"/>
<path class="st0" d="M401,205.8c1.5,3.2,3.9,6.1,6.8,8.2c1.2,0.9,2.6,1.7,3.7,2.7s2.2,2.3,2.5,3.8"/>
<path class="st0" d="M400.7,188.7c0.4,4.5,3.3,8.6,6.9,11.3c3.6,2.7,8,4.3,12.4,5.5c1.9,0.5,3.8,1.1,5.6,1.9c3.1,1.5,5.6,4,7.3,7
	s2.9,6.2,3.7,9.5"/>
<path class="st0" d="M396.5,177.4c0.2,2.2,1.4,4.2,3,5.8c1.6,1.6,3.5,2.7,5.5,3.6c7.9,3.4,17.1,3.6,24.4,8.1
	c4.4,2.7,7.8,6.9,10,11.6s3.3,9.8,3.6,15"/>
<path class="st0" d="M453.4,224.3c0.7-4.7-1.3-9.4-3.2-13.7c-4.1-8.9-8.8-17.7-15.4-25c-2.8-3.1-5.9-5.9-9.6-7.6
	c-5.1-2.4-11-2.7-16.6-3.6c-7.1-1.2-13.9-3.5-20.3-6.8c-3.1-1.6-6.2-3.7-7.4-6.9"/>
<path class="st0" d="M460.4,665.3c0.2,3,0.4,6,1.1,8.9c0.4,1.7,1,3.4,1.2,5.1c0.2,1.8-0.1,3.5-0.3,5.3c-0.2,1.9-0.5,3.8-0.7,5.7"/>
<path class="st0" d="M469,671.4c0.6,2,1,4.1,1,6.2"/>
<path class="st0" d="M453,659.5c-3.1,3.8-3.8,8.9-3.7,13.8c0.1,3.8,0.6,7.7,1.7,11.4c0.6,2,1.3,4,1.7,6.1c1,4.9,0.5,10.2-1.6,14.8"
	/>
<path class="st0" d="M442.8,659.8c-2.2,3.5-3.5,7.6-3.9,11.8c-0.4,4.7,0.4,9.4,1.4,13.9c1,4.6,2.1,9.2,2.4,13.8
	c0.2,4.7-0.5,9.5-2.9,13.5"/>
<path class="st0" d="M435.4,655.5c-1.3,1.9-2.7,3.9-3.6,6c-2.6,5.6-2.4,12.1-1.6,18.2c0.8,6.1,2.3,12.2,2.1,18.4
	c-0.1,3.6-0.7,7.3-1.5,10.8c-0.6,2.6-1.3,5.2-2.8,7.5"/>
<path class="st0" d="M427.9,651.4c-2,6.2-4.1,12.4-6.1,18.6c-1,3-2,6-2.1,9.2c-0.2,3.7,0.8,7.4,1.7,11c1,4.4,1.8,9,1.6,13.5
	s-1.3,9.1-3.9,12.9"/>
<path class="st0" d="M415.4,634.1c1.8-1.1,3.5-2.3,5.3-3.4c0.5-0.3,1.1-0.7,1.6-0.9"/>
<path class="st0" d="M411.2,628.3c3.5-3.1,7.5-5.6,11.8-7.3"/>
<path class="st0" d="M406.4,616.5c6-2,11.5-5.4,16.2-9.7"/>
<path class="st0" d="M400.1,610.2c1.8-1.7,4-3,6.2-4.2c5.9-3.4,11.6-7.3,16.9-11.4"/>
<path class="st0" d="M390.6,605c8.9-3.5,17.3-8.4,24.8-14.4c2.7-2.2,5.3-4.5,8-6.6"/>
<path class="st0" d="M381,597.4c6.1-2.1,12.2-4.1,17.9-7c4.5-2.2,8.7-4.9,12.8-7.6c4.5-2.9,8.9-5.9,12.9-9.5"/>
<path class="st0" d="M380.8,591.3c1.3-0.8,2.6-1.7,3.9-2.5c12.8-8.3,25.6-16.5,36.9-26.7"/>
<path class="st0" d="M391.8,575.8c1.9-0.6,3.5-1.8,5.1-3c4.9-3.7,9.9-7.3,14.9-10.8c3.5-2.4,7.1-4.8,9.3-8.3"/>
<path class="st1" d="M490.3,317c-4-5.3-4.6-12.3-4.9-18.9c-1-28.1,2.9-56.5,11.4-83.3c1.9-5.9,4-11.8,3.9-18
	c-0.1-5.3-1.8-10.4-3.4-15.4c-4.3-12.9-8.9-26.3-17.9-36.6c-6.3-7.2-14.8-13.2-17.4-22.4c-1.2-4.3-0.9-8.9-1.1-13.3
	c-0.3-6.5-1.3-14-4.2-19.9c-2.8-5.8-4.1-12.1-5.8-18.4c-0.9-3.4-1.8-7-3.8-9.9c-2.2-3.3-5.6-5.5-9.1-7.5c-14.2-8-30.7-12-43.5-22.1
	c-9.8-7.7-18-19.1-30.4-21c-6.3-0.9-12.7,0.9-19.1,1.4c-5.7,0.4-11.4-0.3-17.1-0.6c-16.4-1-33,0.8-48.8,5.2c-3.8,1.1-8,2.1-11.6,3.8
	c-3.2,1.5-6,3.1-9.6,4.1c-7.8,2-16,2.4-23.6,5.2C218.4,35.3,208,50.3,194,59.7c-12.2,8.2-26.7,12-40,18.2c-4.6,2.1-9.1,4.5-13.6,7
	c-7.4,4-15.1,8.3-19.5,15.4c-2.5,4.2-3.7,9-5,13.7c-4.7,17.3-11.1,34.1-19.1,50.1c-2.2,4.4-4.5,8.8-5.3,13.7
	c-0.8,5.2,0.2,10.5,0.2,15.7c0,2.4-0.7,4.9-0.6,7.3c0.1,2.6-0.1,4.9-1.3,7.3c-0.7,1.4-1.5,2.6-2.3,4c-2.5,4.4-3.5,9.5-3.5,14.5
	c-0.1,5,0.8,10.1,1.9,15c0.4,1.9,0.9,3.9,0.9,5.9c0,1.9-0.3,3.9-0.6,5.8c-0.7,4.7-0.7,9.5-0.1,14.2"/>
<path class="st0" d="M275.8,108.6c6.2-6.3,13.7-12,22.5-13.3"/>
<path class="st0" d="M287.6,113.9c6.5-5.6,14.4-9.5,22.7-11.4"/>
<path class="st0" d="M269.2,384.2c-0.2-0.5,0.3-0.9,0.8-1.1c1.6-0.8,3.2-1.5,4.9-2c0.6-0.2,1.2-0.3,1.8-0.3c0.7,0.1,1.3,0.4,1.9,0.7
	c1.4,0.7,2.8,1.5,4,2.5c1.2,1,2.2,2.4,2.5,3.9"/>
<path class="st0" d="M280.2,482.4c-1.5,1.8-2.7,4.1-2.3,6.5c0.3,1.7,1.4,3.2,2.4,4.6c0.9,1.2,1.9,2.4,3.4,2.8"/>

</svg>
